<?xml version="1.0" standalone="no"?>
<!DOCTYPE svg PUBLIC "-//W3C//DTD SVG 20010904//EN"
 "http://www.w3.org/TR/2001/REC-SVG-20010904/DTD/svg10.dtd">
<svg version="1.0" xmlns="http://www.w3.org/2000/svg"
 width="361.000000pt" height="361.000000pt" viewBox="0 0 361.000000 361.000000"
 preserveAspectRatio="xMidYMid meet">

<g transform="translate(0.000000,361.000000) scale(0.100000,-0.100000)"
fill="#000000" stroke="none">
<path d="M1097 2943 c-4 -3 -7 -352 -7 -775 l0 -768 715 0 715 0 0 775 0 775
-708 0 c-390 0 -712 -3 -715 -7z m1193 -773 l0 -551 -117 3 -118 3 -3 53 -3
52 -245 0 -244 0 0 -55 0 -56 -117 3 -118 3 -3 548 -2 547 485 0 485 0 0 -550z"/>
<path d="M1560 2215 l0 -245 245 0 245 0 0 245 0 245 -245 0 -245 0 0 -245z"/>
<path d="M310 909 l0 -250 53 3 52 3 3 98 3 97 134 0 135 0 0 50 0 50 -135 0
-135 0 0 100 0 100 -55 0 -55 0 0 -251z"/>
<path d="M700 1065 l0 -95 50 0 50 0 0 95 0 95 -50 0 -50 0 0 -95z"/>
<path d="M860 910 l0 -250 250 0 250 0 0 250 0 250 -250 0 -250 0 0 -250z
m390 0 l0 -140 -140 0 -140 0 0 140 0 140 140 0 140 0 0 -140z"/>
<path d="M1420 910 l0 -250 50 0 50 0 0 195 0 195 130 0 130 0 0 55 0 55 -180
0 -180 0 0 -250z"/>
<path d="M1840 910 l0 -250 245 0 245 0 0 250 0 250 -245 0 -245 0 0 -250z
m380 0 l0 -140 -140 0 -140 0 0 140 0 140 140 0 140 0 0 -140z"/>
<path d="M2390 910 l0 -250 55 0 55 0 0 195 0 195 125 0 125 0 0 55 0 55 -180
0 -180 0 0 -250z"/>
<path d="M2810 910 l0 -250 245 0 245 0 0 250 0 250 -245 0 -245 0 0 -250z
m390 0 l0 -140 -140 0 -140 0 0 140 0 140 140 0 140 0 0 -140z"/>
<path d="M700 755 l0 -95 50 0 50 0 0 95 0 95 -50 0 -50 0 0 -95z"/>
</g>
</svg>
